<svg xmlns="http://www.w3.org/2000/svg" viewBox="0 0 1000 500" fill="#d4d9c8" stroke="none">
  <!-- North America -->
  <path d="M120,60 L140,50 L180,45 L210,55 L230,70 L250,80 L260,100 L250,120 L230,140 L215,160 L200,175 L185,190 L175,200 L160,195 L145,185 L130,175 L120,160 L110,140 L100,120 L95,100 L100,80 Z"/>
  <path d="M155,195 L175,200 L185,190 L195,195 L205,210 L210,230 L200,240 L185,235 L170,225 L160,210 Z"/>
  <!-- Greenland -->
  <path d="M300,30 L330,25 L350,35 L355,55 L340,65 L315,60 L300,45 Z"/>
  <!-- South America -->
  <path d="M220,260 L240,250 L260,255 L275,270 L285,290 L290,320 L285,350 L275,375 L260,395 L245,405 L235,395 L225,380 L220,360 L215,340 L210,310 L215,285 Z"/>
  <!-- Europe -->
  <path d="M430,70 L445,65 L460,70 L475,80 L485,95 L490,110 L485,125 L475,135 L460,140 L445,135 L435,125 L430,110 L425,95 L425,80 Z"/>
  <path d="M490,110 L510,105 L525,115 L530,130 L520,140 L505,135 L495,125 Z"/>
  <!-- British Isles -->
  <path d="M410,80 L420,75 L425,85 L420,95 L410,90 Z"/>
  <!-- Scandinavia -->
  <path d="M460,40 L470,30 L480,35 L485,55 L475,65 L465,60 L460,50 Z"/>
  <!-- Africa -->
  <path d="M440,170 L460,160 L480,165 L500,175 L520,190 L535,210 L540,235 L535,260 L525,285 L515,310 L500,330 L485,345 L470,350 L455,340 L445,320 L440,295 L435,270 L430,245 L425,220 L430,195 Z"/>
  <path d="M540,235 L555,230 L560,245 L555,260 L540,260 Z"/>
  <!-- Madagascar -->
  <path d="M555,310 L562,305 L568,315 L565,330 L558,325 Z"/>
  <!-- Middle East -->
  <path d="M530,140 L550,130 L570,135 L580,150 L575,165 L560,175 L545,170 L535,155 Z"/>
  <!-- Central Asia / Russia -->
  <path d="M485,55 L520,40 L570,35 L620,30 L680,35 L730,40 L770,50 L790,65 L780,80 L760,90 L730,95 L690,100 L650,95 L610,90 L570,95 L540,100 L520,105 L510,105 L495,95 L490,75 Z"/>
  <!-- India -->
  <path d="M610,160 L630,150 L650,155 L660,175 L655,195 L645,215 L630,230 L615,225 L605,210 L600,190 L605,175 Z"/>
  <!-- Southeast Asia -->
  <path d="M680,170 L700,165 L720,175 L730,190 L725,205 L710,215 L695,210 L685,195 L680,180 Z"/>
  <!-- China / East Asia -->
  <path d="M660,90 L690,80 L720,85 L750,95 L760,110 L755,130 L740,145 L720,155 L700,160 L680,155 L665,140 L655,120 L655,105 Z"/>
  <!-- Japan -->
  <path d="M775,100 L785,95 L790,110 L785,125 L778,120 L775,110 Z"/>
  <!-- Indonesia -->
  <path d="M700,240 L720,235 L740,238 L755,245 L750,255 L735,258 L715,255 L705,250 Z"/>
  <path d="M760,245 L775,242 L785,250 L778,258 L765,255 Z"/>
  <!-- Philippines -->
  <path d="M745,185 L752,180 L758,190 L755,200 L748,198 Z"/>
  <!-- Australia -->
  <path d="M735,310 L760,295 L790,300 L820,310 L835,330 L830,355 L815,370 L790,375 L765,370 L745,355 L735,335 Z"/>
  <!-- New Zealand -->
  <path d="M855,370 L862,365 L868,375 L865,390 L858,385 Z"/>
  <!-- Sri Lanka -->
  <path d="M632,235 L638,232 L641,240 L637,245 L633,242 Z"/>
</svg>
